<?xml version="1.0" encoding="UTF-8" standalone="no"?>
<svg width="176px" height="190px" viewBox="0 0 176 190" version="1.1" xmlns="http://www.w3.org/2000/svg" xmlns:xlink="http://www.w3.org/1999/xlink" xmlns:sketch="http://www.bohemiancoding.com/sketch/ns">
    <!-- Generator: Sketch 3.3 (11970) - http://www.bohemiancoding.com/sketch -->
    <title>Imported Layers</title>
    <desc>Created with Sketch.</desc>
    <defs>
        <path id="path-1" d="M14.402,14.393 C17.682,11.113 17.682,5.795 14.402,2.514 C11.121,-0.766 5.803,-0.766 2.522,2.514 C-0.758,5.795 -0.758,11.113 2.522,14.393 C5.803,17.674 11.121,17.674 14.402,14.393"></path>
        <path id="path-3" d="M14.413,14.405 C17.693,11.124 17.693,5.806 14.413,2.525 C11.132,-0.755 5.814,-0.755 2.533,2.525 C-0.747,5.806 -0.747,11.124 2.533,14.405 C5.814,17.685 11.132,17.685 14.413,14.405"></path>
        <path id="path-5" d="M14.506,14.475 C17.786,11.195 17.786,5.876 14.506,2.596 C11.225,-0.684 5.907,-0.684 2.626,2.596 C-0.654,5.876 -0.654,11.195 2.626,14.475 C5.907,17.756 11.225,17.756 14.506,14.475"></path>
        <path id="path-7" d="M14.494,14.486 C17.775,11.206 17.775,5.887 14.494,2.607 C11.214,-0.673 5.896,-0.673 2.615,2.607 C-0.665,5.887 -0.665,11.206 2.615,14.486 C5.896,17.767 11.214,17.767 14.494,14.486"></path>
        <path id="path-9" d="M14.517,14.486 C17.797,11.206 17.797,5.887 14.517,2.607 C11.236,-0.673 5.918,-0.673 2.637,2.607 C-0.643,5.887 -0.643,11.206 2.637,14.486 C5.918,17.767 11.236,17.767 14.517,14.486"></path>
        <path id="path-11" d="M14.506,14.498 C17.786,11.217 17.786,5.899 14.506,2.618 C11.225,-0.662 5.907,-0.662 2.626,2.618 C-0.654,5.899 -0.654,11.217 2.626,14.497 C5.907,17.778 11.225,17.778 14.506,14.498"></path>
        <path id="path-13" d="M14.572,15.224 C17.852,11.943 17.852,6.625 14.572,3.344 C11.291,0.064 5.973,0.064 2.692,3.344 C-0.588,6.625 -0.588,11.943 2.692,15.224 C5.973,18.504 11.291,18.504 14.572,15.224"></path>
        <path id="path-15" d="M14.56,15.235 C17.841,11.954 17.841,6.636 14.56,3.355 C11.28,0.075 5.961,0.075 2.681,3.355 C-0.599,6.636 -0.599,11.954 2.681,15.235 C5.961,18.515 11.28,18.515 14.56,15.235"></path>
        <path id="path-17" d="M14.583,15.235 C17.863,11.954 17.863,6.636 14.583,3.355 C11.302,0.075 5.984,0.075 2.703,3.355 C-0.577,6.636 -0.577,11.954 2.703,15.235 C5.984,18.515 11.302,18.515 14.583,15.235"></path>
        <path id="path-19" d="M14.572,15.246 C17.852,11.965 17.852,6.647 14.572,3.366 C11.291,0.086 5.973,0.086 2.692,3.366 C-0.588,6.647 -0.588,11.965 2.692,15.246 C5.973,18.526 11.291,18.526 14.572,15.246"></path>
        <path id="path-21" d="M14.664,15.317 C17.945,12.036 17.945,6.717 14.664,3.437 C11.384,0.157 6.065,0.157 2.785,3.437 C-0.495,6.717 -0.495,12.036 2.785,15.317 C6.065,18.597 11.384,18.597 14.664,15.317 L14.664,15.317 Z"></path>
        <path id="path-23" d="M14.653,15.328 C17.934,12.047 17.934,6.729 14.653,3.448 C11.373,0.168 6.054,0.168 2.774,3.448 C-0.507,6.729 -0.507,12.047 2.774,15.328 C6.054,18.608 11.373,18.608 14.653,15.328"></path>
        <path id="path-25" d="M14.676,15.328 C17.956,12.047 17.956,6.729 14.676,3.448 C11.395,0.168 6.077,0.168 2.796,3.448 C-0.484,6.729 -0.484,12.047 2.796,15.328 C6.077,18.608 11.395,18.608 14.676,15.328 L14.676,15.328 Z"></path>
        <path id="path-27" d="M14.664,15.339 C17.945,12.058 17.945,6.74 14.664,3.459 C11.384,0.179 6.065,0.179 2.785,3.459 C-0.495,6.74 -0.495,12.058 2.785,15.339 C6.065,18.619 11.384,18.619 14.664,15.339"></path>
    </defs>
    <g id="Page-1" stroke="none" stroke-width="1" fill="none" fill-rule="evenodd" sketch:type="MSPage">
        <g id="Imported-Layers" sketch:type="MSLayerGroup" transform="translate(1.000000, 0.000000)">
            <path d="M1.38,93.454 L41.968,52.866 L122.154,133.052 L122.154,148.884 L82.025,189.013 L0.177,107.165 L1.38,93.454 L1.38,93.454 Z" id="Fill-1" fill="#000000" sketch:type="MSShapeGroup"></path>
            <path d="M1.38,93.454 L41.968,52.866 L122.154,133.052 L122.154,148.884 L82.025,189.013 L0.177,107.165 L1.38,93.454 L1.38,93.454 Z" id="Stroke-2" stroke="#000000" sketch:type="MSShapeGroup"></path>
            <path d="M122.225,133.123 L81.637,173.71 L1.38,93.454 L41.968,52.866 L122.225,133.123" id="Fill-3" fill="#FFFFFF" sketch:type="MSShapeGroup"></path>
            <path d="M47.413,79.382 C50.693,76.102 50.693,70.783 47.413,67.503 C44.132,64.223 38.814,64.223 35.533,67.503 C32.253,70.783 32.253,76.102 35.533,79.382 C38.814,82.663 44.132,82.663 47.413,79.382" id="Fill-4" fill="#FFFFFF" sketch:type="MSShapeGroup"></path>
            <path d="M47.413,79.382 C50.693,76.102 50.693,70.783 47.413,67.503 C44.132,64.223 38.814,64.223 35.533,67.503 C32.253,70.783 32.253,76.102 35.533,79.382 C38.814,82.663 44.132,82.663 47.413,79.382 L47.413,79.382 Z" id="Stroke-5" stroke="#000000" sketch:type="MSShapeGroup"></path>
            <g id="Group-8" transform="translate(13.000000, 85.000000)">
                <mask id="mask-2" sketch:name="Clip 7" fill="white">
                    <use xlink:href="#path-1"></use>
                </mask>
                <g id="Clip-7"></g>
                <path d="M-10.489,8.454 L8.462,-10.497 L27.412,8.454 L8.462,27.404 L-10.489,8.454" id="Fill-6" fill="#000000" sketch:type="MSShapeGroup" mask="url(#mask-2)"></path>
            </g>
            <path d="M67.424,99.393 C70.704,96.113 70.704,90.795 67.424,87.514 C64.143,84.234 58.825,84.234 55.544,87.514 C52.264,90.795 52.264,96.113 55.544,99.393 C58.825,102.674 64.143,102.674 67.424,99.393" id="Fill-9" fill="#FFFFFF" sketch:type="MSShapeGroup"></path>
            <path d="M67.424,99.393 C70.704,96.113 70.704,90.795 67.424,87.514 C64.143,84.234 58.825,84.234 55.544,87.514 C52.264,90.795 52.264,96.113 55.544,99.393 C58.825,102.674 64.143,102.674 67.424,99.393 L67.424,99.393 Z" id="Stroke-10" stroke="#000000" sketch:type="MSShapeGroup"></path>
            <g id="Group-13" transform="translate(33.000000, 105.000000)">
                <mask id="mask-4" sketch:name="Clip 12" fill="white">
                    <use xlink:href="#path-3"></use>
                </mask>
                <g id="Clip-12"></g>
                <path d="M-10.477,8.465 L8.473,-10.486 L27.423,8.465 L8.473,27.415 L-10.477,8.465" id="Fill-11" fill="#000000" sketch:type="MSShapeGroup" mask="url(#mask-4)"></path>
            </g>
            <g id="Group-16" transform="translate(73.000000, 105.000000)">
                <mask id="mask-6" sketch:name="Clip 15" fill="white">
                    <use xlink:href="#path-5"></use>
                </mask>
                <g id="Clip-15"></g>
                <path d="M-10.385,8.536 L8.566,-10.415 L27.516,8.536 L8.566,27.486 L-10.385,8.536" id="Fill-14" fill="#000000" sketch:type="MSShapeGroup" mask="url(#mask-6)"></path>
            </g>
            <g id="Group-19" transform="translate(53.000000, 125.000000)">
                <mask id="mask-8" sketch:name="Clip 18" fill="white">
                    <use xlink:href="#path-7"></use>
                </mask>
                <g id="Clip-18"></g>
                <path d="M-10.396,8.547 L8.555,-10.404 L27.505,8.547 L8.555,27.497 L-10.396,8.547" id="Fill-17" fill="#000000" sketch:type="MSShapeGroup" mask="url(#mask-8)"></path>
            </g>
            <g id="Group-22" transform="translate(93.000000, 125.000000)">
                <mask id="mask-10" sketch:name="Clip 21" fill="white">
                    <use xlink:href="#path-9"></use>
                </mask>
                <g id="Clip-21"></g>
                <path d="M-10.373,8.547 L8.577,-10.404 L27.528,8.547 L8.577,27.497 L-10.373,8.547" id="Fill-20" fill="#000000" sketch:type="MSShapeGroup" mask="url(#mask-10)"></path>
            </g>
            <g id="Group-25" transform="translate(73.000000, 145.000000)">
                <mask id="mask-12" sketch:name="Clip 24" fill="white">
                    <use xlink:href="#path-11"></use>
                </mask>
                <g id="Clip-24"></g>
                <path d="M-10.385,8.558 L8.566,-10.393 L27.516,8.558 L8.566,27.508 L-10.385,8.558" id="Fill-23" fill="#000000" sketch:type="MSShapeGroup" mask="url(#mask-12)"></path>
            </g>
            <path id="Fill-26" fill="#000000" sketch:type="MSShapeGroup"></path>
            <path id="Stroke-27" stroke="#000000" stroke-linejoin="round" sketch:type="MSShapeGroup"></path>
            <path d="M53.539,41.295 L94.127,0.707 L174.313,80.893 L174.313,96.725 L134.183,136.854 L52.336,55.007 L53.539,41.295 L53.539,41.295 Z" id="Fill-28" fill="#000000" sketch:type="MSShapeGroup"></path>
            <path d="M53.539,41.295 L94.127,0.707 L174.313,80.893 L174.313,96.725 L134.183,136.854 L52.336,55.007 L53.539,41.295 L53.539,41.295 Z" id="Stroke-29" stroke="#000000" sketch:type="MSShapeGroup"></path>
            <path d="M174.383,80.964 L133.796,121.552 L53.539,41.295 L94.127,0.707 L174.383,80.964" id="Fill-30" fill="#FFFFFF" sketch:type="MSShapeGroup"></path>
            <g id="Group-33" transform="translate(85.000000, 12.000000)">
                <mask id="mask-14" sketch:name="Clip 32" fill="white">
                    <use xlink:href="#path-13"></use>
                </mask>
                <g id="Clip-32"></g>
                <path d="M-10.319,9.284 L8.632,-9.667 L27.582,9.284 L8.632,28.234 L-10.319,9.284" id="Fill-31" fill="#000000" sketch:type="MSShapeGroup" mask="url(#mask-14)"></path>
            </g>
            <g id="Group-36" transform="translate(65.000000, 32.000000)">
                <mask id="mask-16" sketch:name="Clip 35" fill="white">
                    <use xlink:href="#path-15"></use>
                </mask>
                <g id="Clip-35"></g>
                <path d="M-10.33,9.295 L8.621,-9.655 L27.571,9.295 L8.621,28.246 L-10.33,9.295" id="Fill-34" fill="#000000" sketch:type="MSShapeGroup" mask="url(#mask-16)"></path>
            </g>
            <g id="Group-39" transform="translate(105.000000, 32.000000)">
                <mask id="mask-18" sketch:name="Clip 38" fill="white">
                    <use xlink:href="#path-17"></use>
                </mask>
                <g id="Clip-38"></g>
                <path d="M-10.308,9.295 L8.643,-9.655 L27.593,9.295 L8.643,28.246 L-10.308,9.295" id="Fill-37" fill="#000000" sketch:type="MSShapeGroup" mask="url(#mask-18)"></path>
            </g>
            <g id="Group-42" transform="translate(85.000000, 52.000000)">
                <mask id="mask-20" sketch:name="Clip 41" fill="white">
                    <use xlink:href="#path-19"></use>
                </mask>
                <g id="Clip-41"></g>
                <path d="M-10.319,9.306 L8.632,-9.644 L27.582,9.306 L8.632,28.257 L-10.319,9.306" id="Fill-40" fill="#000000" sketch:type="MSShapeGroup" mask="url(#mask-20)"></path>
            </g>
            <path d="M139.664,67.317 C142.945,64.036 142.945,58.717 139.664,55.437 C136.384,52.157 131.065,52.157 127.785,55.437 C124.505,58.717 124.505,64.036 127.785,67.317 C131.065,70.597 136.384,70.597 139.664,67.317" id="Fill-43" fill="#FFFFFF" sketch:type="MSShapeGroup"></path>
            <g id="Group-46" transform="translate(125.000000, 52.000000)">
                <mask id="mask-22" sketch:name="Clip 45" fill="white">
                    <use xlink:href="#path-21"></use>
                </mask>
                <g id="Clip-45"></g>
                <path d="M-10.226,9.377 L8.725,-9.574 L27.675,9.377 L8.725,28.327 L-10.226,9.377 L-10.226,9.377 Z" id="Stroke-44" stroke="#000000" sketch:type="MSShapeGroup" mask="url(#mask-22)"></path>
            </g>
            <path d="M139.664,67.317 C142.945,64.036 142.945,58.717 139.664,55.437 C136.384,52.157 131.065,52.157 127.785,55.437 C124.505,58.717 124.505,64.036 127.785,67.317 C131.065,70.597 136.384,70.597 139.664,67.317 L139.664,67.317 Z" id="Stroke-47" stroke="#000000" sketch:type="MSShapeGroup"></path>
            <g id="Group-50" transform="translate(105.000000, 72.000000)">
                <mask id="mask-24" sketch:name="Clip 49" fill="white">
                    <use xlink:href="#path-23"></use>
                </mask>
                <g id="Clip-49"></g>
                <path d="M-10.237,9.388 L8.714,-9.562 L27.664,9.388 L8.714,28.338 L-10.237,9.388" id="Fill-48" fill="#000000" sketch:type="MSShapeGroup" mask="url(#mask-24)"></path>
            </g>
            <path d="M159.676,87.328 C162.956,84.047 162.956,78.729 159.676,75.448 C156.395,72.168 151.077,72.168 147.796,75.448 C144.516,78.729 144.516,84.047 147.796,87.328 C151.077,90.608 156.395,90.608 159.676,87.328" id="Fill-51" fill="#FFFFFF" sketch:type="MSShapeGroup"></path>
            <g id="Group-54" transform="translate(145.000000, 72.000000)">
                <mask id="mask-26" sketch:name="Clip 53" fill="white">
                    <use xlink:href="#path-25"></use>
                </mask>
                <g id="Clip-53"></g>
                <path d="M-10.215,9.388 L8.736,-9.562 L27.686,9.388 L8.736,28.338 L-10.215,9.388 L-10.215,9.388 Z" id="Stroke-52" stroke="#000000" sketch:type="MSShapeGroup" mask="url(#mask-26)"></path>
            </g>
            <path d="M159.676,87.328 C162.956,84.047 162.956,78.729 159.676,75.448 C156.395,72.168 151.077,72.168 147.796,75.448 C144.516,78.729 144.516,84.047 147.796,87.328 C151.077,90.608 156.395,90.608 159.676,87.328 L159.676,87.328 Z" id="Stroke-55" stroke="#000000" sketch:type="MSShapeGroup"></path>
            <g id="Group-58" transform="translate(125.000000, 92.000000)">
                <mask id="mask-28" sketch:name="Clip 57" fill="white">
                    <use xlink:href="#path-27"></use>
                </mask>
                <g id="Clip-57"></g>
                <path d="M-10.226,9.399 L8.725,-9.551 L27.675,9.399 L8.725,28.349 L-10.226,9.399" id="Fill-56" fill="#000000" sketch:type="MSShapeGroup" mask="url(#mask-28)"></path>
            </g>
            <path id="Fill-59" fill="#000000" sketch:type="MSShapeGroup"></path>
            <path id="Stroke-60" stroke="#000000" stroke-linejoin="round" sketch:type="MSShapeGroup"></path>
        </g>
    </g>
</svg>