<?xml version="1.0" encoding="UTF-8" standalone="no"?>
<svg width="255px" height="256px" viewBox="0 0 255 256" version="1.1" xmlns="http://www.w3.org/2000/svg" xmlns:xlink="http://www.w3.org/1999/xlink">
    <!-- Generator: Sketch 3.6.1 (26313) - http://www.bohemiancoding.com/sketch -->
    <title>bourbon-logo</title>
    <desc>Created with Sketch.</desc>
    <defs>
        <linearGradient x1="46.6458496%" y1="-2.08864266%" x2="57.3625907%" y2="137.781163%" id="linearGradient-1">
            <stop stop-color="#FF992E" offset="0%"></stop>
            <stop stop-color="#FF4C2E" offset="63.5%"></stop>
            <stop stop-color="#E3302E" offset="100%"></stop>
        </linearGradient>
    </defs>
    <g id="Page-1" stroke="none" stroke-width="1" fill="none" fill-rule="evenodd">
        <g id="bourbon-logo" transform="translate(2.000000, 3.000000)">
            <g transform="translate(51.500000, 60.000000)" id="Page-1">
                <g>
                    <g id="Bourbon-final">
                        <path d="M30.2346777,129.458333 C21.5870686,129.458333 14.2798389,123.5 13.0691736,115.916667 C12.9394595,114.833333 0.962520836,17.875 0.962520836,16.7916667 C0.832806699,16.5208333 0.659854517,16.25 0.659854517,15.9791667 L0.688679882,12.7291667 C0.688679882,10.0208333 1.87051979,7.3125 4.29185035,5.6875 C6.30962582,3.25 10.9505094,0 74.2077702,0 C137.320904,0 142.005026,3.25 144.12369,5.6875 C146.256767,7.58333333 147.453019,10.0208333 147.453019,13 L147.409781,15.7083333 C147.409781,16.25 147.453019,16.5208333 147.150353,17.0625 L134.294241,115.916667 C134.294241,116.1875 134.135701,116.458333 134.135701,116.729167 C132.564719,124.041667 125.358378,129.458333 117.186388,129.458333 L30.2346777,129.458333 L30.2346777,129.458333 L30.2346777,129.458333 Z" id="Shape" fill="#E5D1BF"></path>
                        <g id="Group" transform="translate(4.323803, 3.900000)">
                            <g>
                                <path d="M138.618046,8.9375 C138.618046,7.04166667 137.767697,5.41666667 136.557032,4.33333333 C133.42948,1.08333333 104.777068,0 69.6677754,0 C34.702609,0 6.10784827,0.8125 2.77851875,4.0625 C1.55344079,5.41666667 0.659854517,6.77083333 0.659854517,8.66666667 L0.688679882,11.6458333 C0.688679882,11.9166667 0.659854517,12.1875 0.962520836,12.4583333 C0.832806699,12.7291667 13.0691736,111.3125 13.0691736,111.3125 C13.9483472,117 19.4251663,121.333333 25.781159,121.333333 L112.675218,121.333333 C119.305052,121.333333 124.753046,117 125.358378,111.3125 L125.502505,111.3125 L138.473919,12.4583333 L138.473919,11.6458333 L138.473919,8.9375 L138.618046,8.9375 L138.618046,8.9375 Z" id="Shape" fill="#FEF9EC"></path>
                                <ellipse id="Oval" fill="#E5D1BF" cx="69.3651091" cy="8.125" rx="60.8359302" ry="2.97916667"></ellipse>
                            </g>
                            <path d="M119.305052,101.833333 C119.160925,105.354167 116.278389,108.0625 112.343726,108.0625 L26.3432536,108.0625 C22.5959564,108.0625 19.7278326,105.354167 19.4251663,101.833333 C18.8486591,92.625 15.1878379,65 15.1878379,65 C15.1013618,62.5625 16.3985031,61.2083333 19.4251663,61.2083333 L119.305052,61.2083333 C122.043461,61.2083333 123.54238,62.5625 123.54238,65 C123.628856,65 119.607718,92.625 119.305052,101.833333 L119.305052,101.833333 L119.305052,101.833333 Z" id="Shape" fill="url(#linearGradient-1)"></path>
                        </g>
                        <path d="M56.4657587,70.1458333 C54.736237,72.0416667 55.139792,75.0208333 57.5611226,76.6458333 L76.3552597,89.9166667 C78.661289,91.2708333 82.0770945,91 83.5904261,88.8333333 L98.2625361,71.7708333 C99.992058,69.875 99.631741,66.8958333 97.2104105,65.2708333 L78.3730353,52 C76.0670061,50.6458333 72.6944386,50.9166667 70.8784407,53.0833333 L56.4657587,70.1458333 L56.4657587,70.1458333 L56.4657587,70.1458333 Z" id="Shape" fill="#FEF9EC" opacity="0.65"></path>
                        <path d="M38.4499065,57.6875 C35.5673699,57.9583333 33.6504833,60.3958333 33.9531497,62.8333333 L37.0086382,84.2291667 C37.4410188,86.9375 40.0064761,88.5625 43.0331393,88.2916667 L66.5546362,85.5833333 C69.4371724,85.0416667 71.4837733,82.875 70.8784407,80.1666667 L67.9959041,58.7708333 C67.5635238,56.3333333 64.8251143,54.4375 62.1011174,54.9791667 L38.4499065,57.6875 L38.4499065,57.6875 L38.4499065,57.6875 Z" id="Shape" fill="#FEF9EC" opacity="0.65"></path>
                    </g>
                </g>
            </g>
            <circle id="Oval-2-Copy-3" stroke="#979797" stroke-width="5" cx="125.5" cy="125" r="125"></circle>
        </g>
    </g>
</svg>