<?xml version="1.0" encoding="UTF-8" standalone="no"?>
<svg width="255px" height="256px" viewBox="0 0 255 256" version="1.1" xmlns="http://www.w3.org/2000/svg" xmlns:xlink="http://www.w3.org/1999/xlink">
    <!-- Generator: Sketch 3.6.1 (26313) - http://www.bohemiancoding.com/sketch -->
    <title>browsersync-logo</title>
    <desc>Created with Sketch.</desc>
    <defs></defs>
    <g id="Page-1" stroke="none" stroke-width="1" fill="none" fill-rule="evenodd">
        <g id="browsersync-logo" transform="translate(2.000000, 3.000000)">
            <circle id="Oval-2-Copy-4" stroke="#979797" stroke-width="5" cx="125.5" cy="125" r="125"></circle>
            <g id="Group-4" transform="translate(77.500000, 50.000000)" fill="#F24747">
                <path d="M44.1644639,0.94849729 L1.6996466,23.3851293 C0.979903935,23.7654112 0.620032602,24.525975 0.620032602,25.2865388 L0.620032602,124.159833 C0.620032602,124.920396 0.979903935,125.68096 1.6996466,126.061242 L44.1644639,148.497874 C45.6039492,149.258438 47.2233702,148.117592 47.2233702,146.596465 L47.2233702,3.04004773 C47.2233702,1.32877919 45.6039492,0.187933492 44.1644639,0.94849729 L44.1644639,0.94849729 Z" id="Shape"></path>
                <path d="M53.1914776,148.82049 L95.6562949,126.383858 C96.3760376,126.003576 96.7359089,125.243013 96.7359089,124.482449 L96.7359089,76.3767886 C96.7359089,75.6162248 96.3760376,74.855661 95.6562949,74.4753791 L53.1914776,52.0387471 C51.7519923,51.2781833 50.1325713,52.419029 50.1325713,53.9401566 L50.1325713,146.72894 C50.1325713,148.440208 51.7519923,149.581054 53.1914776,148.82049 L53.1914776,148.82049 Z" id="Shape"></path>
            </g>
        </g>
    </g>
</svg>