<?xml version="1.0" encoding="UTF-8" standalone="no"?>
<svg width="256px" height="256px" viewBox="0 0 256 256" version="1.1" xmlns="http://www.w3.org/2000/svg" xmlns:xlink="http://www.w3.org/1999/xlink">
    <!-- Generator: Sketch 3.6.1 (26313) - http://www.bohemiancoding.com/sketch -->
    <title>gulp-logo</title>
    <desc>Created with Sketch.</desc>
    <defs></defs>
    <g id="Page-1" stroke="none" stroke-width="1" fill="none" fill-rule="evenodd">
        <g id="gulp-logo" transform="translate(3.000000, 3.000000)">
            <circle id="Oval-2" stroke="#979797" stroke-width="5" cx="125" cy="125" r="125"></circle>
            <g id="Group-10" transform="translate(28.000000, 66.000000)" fill="#DA4648">
                <path d="M51.6047698,60.5151711 C51.4692778,60.7145329 51.2244683,61.3457171 50.8695714,62.4056447 C50.5146746,63.4671118 50.0843333,64.7972171 49.5762381,66.3982697 C49.0704524,67.9985526 48.5200159,69.7897303 47.9295476,71.7710329 C47.3375397,73.7515658 46.7293651,75.7728947 46.104254,77.83425 C45.4791429,79.896375 44.8794365,81.9161645 44.3051349,83.8982368 C43.7292937,85.8787697 43.2150397,87.6691776 42.7585238,89.271 C42.3027778,90.8705132 41.9224762,92.2121645 41.6183889,93.2936447 C41.3135317,94.3735855 41.128,95.0132368 41.060254,95.2149079 C40.8908889,95.8545592 40.6206746,96.5650263 40.2496111,97.3455395 C39.8770079,98.1252829 39.4381984,98.8665395 38.9316429,99.567 C38.4243175,100.266691 37.8669524,100.847072 37.2587778,101.308145 C36.6498333,101.766908 36.0247222,101.997829 35.3834444,101.997829 C34.3010476,101.997829 33.5158095,101.637592 33.0261905,100.917888 C32.5350317,100.196645 32.2909921,98.8773158 32.2909921,96.9552829 L32.2909921,96.1147303 C32.2909921,95.8337763 32.3071587,95.5343487 32.3418016,95.2149079 C32.3749048,94.5744868 32.6281825,93.3721579 33.1016349,91.6117697 C33.5750873,89.8506118 34.1409206,87.8600724 34.7999048,85.6386118 C35.4596587,83.4179211 36.1686825,81.1164079 36.9292857,78.7356118 C37.6898889,76.3540461 38.3735079,74.2226447 38.9824524,72.3406382 C37.1902619,74.3434934 35.2479524,76.3340329 33.1524444,78.3145658 C31.0569365,80.2958684 28.9113889,82.0762697 26.7150317,83.6573092 C24.5179048,85.2398882 22.3046111,86.5307368 20.074381,87.5298553 C17.843381,88.5289737 15.6970635,89.0316118 13.6361984,89.0316118 C11.2704762,89.0316118 9.23424603,88.5105 7.52750794,87.4698158 C5.82153968,86.4291316 4.41042063,85.0682368 3.29492063,83.3879013 C2.18019048,81.7067961 1.35107143,79.8055461 0.811412698,77.6841513 C0.270214286,75.5635263 0,73.4421316 0,71.3207368 L0,70.5394539 C0,70.3008355 0.0161666667,70.0599079 0.0508095238,69.8205197 C0.253277778,65.9772237 0.802174603,62.0354013 1.69826984,57.9927434 C2.59359524,53.9500855 3.76837302,49.9282105 5.22183333,45.9263487 C6.67375397,41.9244868 8.35585714,38.0111447 10.2650635,34.1894013 C12.1742698,30.3676579 14.2520714,26.7552829 16.5000079,23.3530461 C18.7471746,19.9515789 21.1383016,16.8202895 23.672619,13.9576382 C26.2077063,11.0972961 28.8097698,8.63567763 31.4803492,6.57355263 C34.1493889,4.51296711 36.8446032,2.90267763 39.5652222,1.74114474 C42.2850714,0.580381579 44.9810556,0 47.6500952,0 C50.7256111,0 53.6995079,0.840552632 56.5725556,2.52088816 C59.4440635,4.20199342 62.1308095,6.92455263 64.6327937,10.6862566 C65.2063254,11.5268092 65.5704603,12.3773684 65.722119,13.2371645 C65.8737778,14.0985 65.9499921,14.9090329 65.9499921,15.6687632 C65.9499921,17.4691776 65.518881,18.8916513 64.6574286,19.9315658 C63.7959762,20.9730197 62.773627,21.4918224 61.590381,21.4918224 C60.508754,21.4918224 59.5041111,20.9222171 58.5741429,19.7814671 C57.6449444,18.6399474 56.6056587,17.0104145 55.4570556,14.88825 C54.3754286,12.9669868 53.1837143,11.5776118 51.8834524,10.7162763 C50.5824206,9.85571053 49.1713016,9.42542763 47.6500952,9.42542763 C45.284373,9.42542763 42.7585238,10.4068421 40.0725476,12.3665921 C37.3850317,14.3278816 34.7236905,16.9203553 32.0885238,20.1417039 C29.4518175,23.3638224 26.9259683,27.0447039 24.5094365,31.1874276 C22.0936746,35.3301513 19.9550556,39.5721711 18.0966587,43.9150263 C16.2382619,48.2578816 14.7593968,52.5406974 13.6616032,56.7619342 C12.5630397,60.9847105 12.0141429,64.7764342 12.0141429,68.1394145 C12.0141429,69.2593816 12.0903571,70.4109079 12.2420159,71.5901447 C12.3944444,72.7716908 12.6808254,73.8423947 13.1034683,74.8022566 C13.5261111,75.7628882 14.1004127,76.5541776 14.8271429,77.1730461 C15.553873,77.7957632 16.4746032,78.1036579 17.5901032,78.1036579 C18.8403254,78.1036579 20.2599127,77.6841513 21.8480952,76.8435987 C23.4362778,76.0038158 25.0837381,74.9023224 26.7904762,73.5421974 C28.4972143,72.1813026 30.2124206,70.6410592 31.9360952,68.9191579 C33.6597698,67.1987961 35.264119,65.4584211 36.7514524,63.6964934 C38.2380159,61.9353355 39.556754,60.2434539 40.7053571,58.6231579 C41.8539603,57.0020921 42.7161825,55.5911645 43.2904841,54.3911447 L48.0049921,40.2826382 C48.5800635,38.7624079 49.3314286,37.6816974 50.2613968,37.0412763 C51.1898254,36.401625 52.1444286,36.0806447 53.1252063,36.0806447 C53.5978889,36.0806447 54.0705714,36.1614671 54.5447937,36.3208026 C55.0174762,36.4809079 55.440119,36.7310724 55.8119524,37.0712961 C56.1837857,37.4115197 56.4786349,37.8510395 56.6988095,38.3921645 C56.9182143,38.9325197 57.0283016,39.5629342 57.0283016,40.2826382 C57.0283016,42.2039013 56.8589365,44.0050855 56.521746,45.6854211 C56.1837857,47.3680658 55.7526746,49.008375 55.2291825,50.6094276 C54.7049206,52.2097105 54.121381,53.8207697 53.4801032,55.4418355 C52.8372857,57.0621316 52.2121746,58.7540132 51.6047698,60.5151711" id="Fill-1"></path>
                <path d="M115.748714,71.6932895 C114.261381,73.6938355 112.530008,75.6451184 110.553056,77.5455987 C108.576103,79.4468487 106.539873,81.1379605 104.445135,82.6189342 C102.348857,84.0991382 100.287222,85.2899211 98.261,86.1905132 C96.2332381,87.0911053 94.4087143,87.5414013 92.7858889,87.5414013 C91.1638333,87.5414013 89.8458651,87.0010461 88.8319841,85.9203355 C87.8181032,84.8403947 87.3115476,82.9991842 87.3115476,80.3967039 C87.3115476,78.5562632 87.5817619,76.4148553 88.1221905,73.97325 C87.2430317,75.5350461 86.1452381,77.1160855 84.8272698,78.7163684 C83.5093016,80.3174211 82.0050317,81.7776118 80.3152302,83.09925 C78.6254286,84.4201184 76.7331587,85.4908224 74.6376508,86.3098224 C72.5421429,87.1295921 70.2611032,87.5414013 67.7945317,87.5414013 C66.6798016,87.5414013 65.6066429,87.4005395 64.5758254,87.1203553 C63.5442381,86.8401711 62.6412143,86.360625 61.8636746,85.6801776 C61.0861349,85.0005 60.4610238,84.0899013 59.9875714,82.9483816 C59.5148889,81.8084013 59.2777778,80.3774605 59.2777778,78.6563289 C59.2777778,78.6163026 59.3462937,78.0059013 59.4817857,76.825125 C59.6157381,75.6451184 60.0468492,73.7838947 60.7735794,71.2414539 C61.5003095,68.7013224 62.6242778,65.4091579 64.1447143,61.3665 C65.6659206,57.3238421 67.8114683,52.4221579 70.582127,46.6583684 C71.2919206,45.1381382 72.1118016,44.0474211 73.041,43.3862171 C73.9709683,42.7257829 74.9756111,42.3955658 76.0572381,42.3955658 C76.5306905,42.3955658 77.0203095,42.4663816 77.5276349,42.6057039 C78.0349603,42.7465658 78.506873,42.9659408 78.9472222,43.2661382 C79.3860317,43.5663355 79.7409286,43.9473553 80.0119127,44.4068882 C80.282127,44.8664211 80.417619,45.3967697 80.417619,45.9979342 C80.417619,46.3981974 80.3660397,46.7792171 80.2651905,47.1371447 C80.0958254,47.8199013 79.7324603,48.7089474 79.1750952,49.8089013 C78.6169603,50.9103947 77.9664444,52.1719934 77.2235476,53.5921579 C76.479881,55.0130921 75.693873,56.5440987 74.8662937,58.1851776 C74.0379444,59.8262566 73.2696429,61.5266053 72.5598492,63.2877632 C71.8500556,65.0496908 71.241881,66.8400987 70.7353254,68.6605263 C70.228,70.4824934 69.9408492,72.2528882 69.873873,73.97325 C69.873873,74.6937237 70.0416984,75.3549276 70.3804286,75.9545526 C70.717619,76.5549474 71.2749841,76.8559145 72.0532937,76.8559145 C74.248881,76.8559145 76.3443889,76.1346711 78.3390476,74.6937237 C80.3329365,73.2535461 82.173627,71.4623684 83.8641984,69.3209605 C85.554,67.1810921 87.0829048,64.8788092 88.4509127,62.4171908 C89.8204603,59.9555724 90.9613651,57.7048618 91.873627,55.6635197 C92.5156746,54.302625 93.0807381,52.8416645 93.5718968,51.2798684 C94.0615159,49.7196118 94.5934762,48.2794342 95.1685476,46.9577961 C95.7428492,45.6369276 96.4018333,44.5377434 97.1447302,43.6563947 C97.887627,42.7758158 98.8175952,42.3355263 99.9330952,42.3355263 C101.150214,42.3355263 102.112516,42.7965987 102.82231,43.7156645 C103.532103,44.6370395 103.88623,45.7369934 103.88623,47.0178355 C103.88623,47.7390789 103.659127,48.7289605 103.203381,49.9897895 C102.746095,51.2506184 102.171794,52.6915658 101.478167,54.3126316 C100.786079,55.9329276 100.033944,57.6640658 99.2240714,59.5052763 C98.4126587,61.3464868 97.6589841,63.2177171 96.9684365,65.1181974 C96.2748095,67.0202171 95.7005079,68.8814408 95.2447619,70.7026382 C94.788246,72.5230658 94.560373,74.2134079 94.560373,75.7744342 C94.560373,77.2161513 95.3032698,77.9350855 96.7898333,77.9350855 C97.8375873,77.9350855 99.138619,77.5748487 100.692929,76.8559145 C102.248008,76.1346711 103.878532,75.1240066 105.58527,73.8231513 C107.291238,72.5230658 108.997976,70.9920592 110.705484,69.2316711 C112.410683,67.4705132 113.92419,65.5692632 115.241389,63.5271513 L115.748714,71.6932895" id="Fill-4"></path>
                <path d="M117.491635,69.0022895 C117.119802,69.9244342 116.756437,70.9943684 116.40154,72.2151711 C116.045873,73.4359737 115.869579,74.5259211 115.869579,75.4865526 C115.869579,76.0869474 115.971198,76.5672632 116.173667,76.9275 C116.376135,77.2877368 116.764905,77.4678553 117.339976,77.4678553 C118.049,77.4678553 118.935857,77.2184605 120.000548,76.7181316 C121.064468,76.2178026 122.213071,75.5565987 123.447897,74.7368289 C124.681183,73.9170592 125.965278,72.9764408 127.300183,71.9149737 C128.634317,70.8550461 129.961524,69.7535526 131.279492,68.6135724 C132.59746,67.4712829 133.855381,66.3320724 135.056333,65.1913224 C136.254976,64.0498026 137.328905,62.9998816 138.27504,62.0400197 C138.545254,61.7590658 138.865508,61.5589342 139.238111,61.4388553 C139.609175,61.3187763 139.930968,61.2587368 140.201183,61.2587368 C140.876333,61.2587368 141.435238,61.5389211 141.874048,62.1000592 C142.312857,62.6596579 142.533032,63.399375 142.533032,64.32075 C142.533032,65.1605329 142.295921,66.1019211 141.824008,67.1418355 C141.350556,68.1832895 140.522206,69.2039605 139.33896,70.2030789 C137.176476,72.5654013 134.997825,74.806875 132.799929,76.9275 C130.603571,79.0488947 128.415683,80.9193553 126.236262,82.5396513 C124.056071,84.1622566 121.892817,85.4523355 119.74727,86.4137368 C117.600952,87.3735987 115.514683,87.8539145 113.486151,87.8539145 C112.100437,87.8539145 110.943365,87.6337697 110.014937,87.1934803 C109.084198,86.7524211 108.342071,86.1527961 107.783937,85.3930658 C107.225802,84.6317961 106.828563,83.7319737 106.592222,82.6912895 C106.355881,81.6506053 106.238095,80.5506513 106.238095,79.3898882 C106.238095,77.4285987 106.483675,75.4172763 106.972524,73.3551513 C107.462143,71.2953355 108.044913,69.4033224 108.721603,67.6829605 C109.904079,64.5601382 111.105032,61.4604079 112.321381,58.3776118 C113.53696,55.2963553 114.65246,52.4745 115.667111,49.9120461 L131.026214,11.1904342 C131.634389,9.62940789 132.4535,8.52868421 133.485087,7.88826316 C134.515905,7.24861184 135.554421,6.92763158 136.602944,6.92763158 C137.649159,6.92763158 138.604532,7.26785526 139.466754,7.94830263 C140.328206,8.62951974 140.759317,9.73024342 140.759317,11.2504737 C140.759317,11.9709474 140.615357,12.7314474 140.328206,13.5312039 C140.040286,14.3332697 139.67769,15.1922961 139.238111,16.1136711 C138.393595,17.9949079 137.388183,20.2956513 136.222643,23.0166711 C135.056333,25.7392303 133.805341,28.7004079 132.469667,31.9017434 C131.135532,35.1046184 129.766754,38.4368092 128.364873,41.8983158 C126.961452,45.3598224 125.593444,48.7320395 124.25777,52.0134276 C122.923635,55.2963553 121.673413,58.4068618 120.507103,61.3487961 C119.341563,64.2899605 118.336151,66.8416382 117.491635,69.0022895" id="Fill-6"></path>
                <path d="M188.95677,57.7641316 C189.430222,57.4439211 189.870571,57.1845197 190.275508,56.9836184 C190.680444,56.7850263 191.069214,56.6834211 191.441817,56.6834211 C192.183944,56.6834211 192.742079,57.0144079 193.114683,57.6740724 C193.485746,58.3345066 193.671278,59.1450395 193.671278,60.1056711 C193.671278,61.1478947 193.444175,62.2062829 192.986889,63.2877632 C192.531913,64.3677039 191.846754,65.2682961 190.933722,65.9887697 C187.317008,69.190875 184.090603,72.1120263 181.252968,74.7545329 C178.413794,77.3947303 175.734746,79.6669934 173.217365,81.5682434 C170.699984,83.4694934 168.241881,84.9404605 165.842286,85.980375 C163.44269,87.0202895 160.8745,87.5414013 158.136175,87.5414013 C155.567984,87.5414013 153.582563,86.9802632 152.180683,85.8602961 C150.777262,84.7403289 150.075937,83.1993158 150.075937,81.2372566 L150.075937,80.7869605 C150.075937,80.6484079 150.092873,80.4775263 150.127516,80.276625 C150.260698,79.077375 150.7865,77.6956974 151.698762,76.1346711 C152.611024,74.5736447 153.709587,72.9533487 154.993683,71.2722434 C156.277778,69.5911382 157.645786,67.8907895 159.100016,66.1688882 C160.552706,64.4492961 161.89531,62.8182237 163.130135,61.2756711 C164.363421,59.7361974 165.38577,58.3252697 166.196413,57.0436579 C167.007825,55.7635855 167.413532,54.7236711 167.413532,53.922375 C167.413532,53.4420592 167.243397,53.0625789 166.906976,52.781625 C166.569016,52.5014408 166.010111,52.3621184 165.234111,52.3621184 C163.8815,52.3621184 162.488087,52.7115789 161.052333,53.4128092 C159.61504,54.1117303 158.195452,55.0531184 156.793571,56.233125 C155.390921,57.4146711 154.021373,58.7655592 152.687238,60.2857895 C151.351563,61.8067895 150.102111,63.3878289 148.935802,65.0289079 C147.769492,66.6707566 146.705571,68.3203026 145.74173,69.9813947 C144.778659,71.6424868 143.958778,73.1734934 143.283627,74.5736447 C143.081159,75.0139342 142.793238,75.6351118 142.421405,76.4348684 C142.048802,77.2361645 141.643865,78.1367566 141.205825,79.1374145 C140.765476,80.1373026 140.301262,81.16875 139.810873,82.2271382 C139.321254,83.2886053 138.873206,84.2900329 138.46827,85.2298816 C138.062563,86.1705 137.698429,87.0095132 137.378175,87.7515395 C137.056381,88.4912566 136.827738,89.0015921 136.693786,89.2817763 C136.524421,89.6420132 136.244968,90.3216908 135.857738,91.3231184 C135.468968,92.3237763 135.02169,93.4937763 134.512825,94.8354276 C134.00704,96.1763092 133.47431,97.5872368 132.916944,99.0674408 C132.360349,100.548414 131.836087,101.950105 131.345698,103.270204 C130.85531,104.590303 130.424198,105.751066 130.053135,106.752493 C129.681302,107.752382 129.44419,108.432829 129.343341,108.793066 C129.006151,109.83375 128.608143,110.813625 128.152397,111.735 C127.695881,112.655605 127.171619,113.465368 126.581151,114.167368 C125.989913,114.866289 125.312452,115.426658 124.553389,115.847704 C123.792016,116.26798 122.939032,116.478118 121.993667,116.478118 C120.776548,116.478118 119.771905,116.187158 118.976659,115.607546 C118.182952,115.027164 117.785714,113.915664 117.785714,112.275355 C117.785714,111.474829 117.886563,110.654289 118.089032,109.814507 C118.29304,108.973954 118.546317,108.141868 118.850405,107.322099 C119.153722,106.501559 119.467048,105.701803 119.787302,104.922059 C120.109095,104.140776 120.405484,103.391053 120.674929,102.669809 C122.500222,98.6671776 124.358619,94.6553092 126.250889,90.6326645 C128.143929,86.6107895 129.959984,82.6297105 131.699825,78.6863487 C133.440437,74.7445263 135.054794,70.8719803 136.542127,67.0694803 C138.02869,63.26775 139.261976,59.6253553 140.241984,56.1438355 C140.511429,55.4225921 140.884032,54.4026908 141.357484,53.0810526 C141.830167,51.7609539 142.370595,50.4608684 142.97954,49.1792566 C143.587714,47.8991842 144.272103,46.7876842 145.031937,45.8486053 C145.79331,44.9079868 146.611651,44.4369079 147.49081,44.4369079 C148.843421,44.4369079 149.822659,44.7463421 150.430833,45.3675197 C151.039778,45.9879276 151.343865,46.8977566 151.343865,48.0993158 C151.343865,48.3394737 151.309992,48.7197237 151.243016,49.2392961 C151.1745,49.7596382 151.090587,50.3115395 150.989738,50.8911513 C150.888119,51.4707632 150.777262,52.021125 150.659476,52.5422368 C150.540921,53.0625789 150.430833,53.4420592 150.329214,53.6822171 C151.579437,52.3213224 152.931278,50.9704342 154.385508,49.6303224 C155.838198,48.2902105 157.342468,47.0771053 158.897548,45.9979342 C160.451087,44.9179934 162.04004,44.0374145 163.662865,43.3561974 C165.284921,42.6765197 166.906976,42.3355263 168.529032,42.3355263 C169.642992,42.3355263 170.750794,42.4956316 171.848587,42.8158421 C172.946381,43.1360526 173.927929,43.6071316 174.789381,44.226 C175.651603,44.8479474 176.352159,45.6284605 176.892587,46.5675395 C177.432246,47.5089276 177.70323,48.5996447 177.70323,49.8396908 C177.70323,51.4815395 177.289825,53.2326908 176.462246,55.0939145 C175.633127,56.9543684 174.594611,58.8248289 173.345159,60.7060658 C172.093397,62.5880724 170.741556,64.4185066 169.288865,66.1989079 C167.835405,67.9808487 166.475865,69.6011447 165.207937,71.0621053 C163.940778,72.5230658 162.876857,73.7631118 162.014635,74.7837829 C161.153183,75.8052237 160.704365,76.4949079 160.671262,76.8551447 C160.671262,77.3362303 160.82369,77.7257171 161.127778,78.0259145 C161.431095,78.3268816 161.938421,78.4762105 162.648214,78.4762105 C163.222516,78.4762105 164.067802,78.1552303 165.183302,77.5148092 C166.298032,76.8751579 167.86081,75.7644276 169.871635,74.1841579 C171.880921,72.6038882 174.434484,70.4824934 177.526167,67.8199737 C180.618619,65.1597632 184.428563,61.8067895 188.95677,57.7641316" id="Fill-8"></path>
            </g>
        </g>
    </g>
</svg>