<?xml version="1.0" encoding="UTF-8" standalone="no"?>
<svg width="256px" height="256px" viewBox="0 0 256 256" version="1.1" xmlns="http://www.w3.org/2000/svg" xmlns:xlink="http://www.w3.org/1999/xlink">
    <!-- Generator: Sketch 3.6.1 (26313) - http://www.bohemiancoding.com/sketch -->
    <title>sass-logo</title>
    <desc>Created with Sketch.</desc>
    <defs></defs>
    <g id="Page-1" stroke="none" stroke-width="1" fill="none" fill-rule="evenodd">
        <g id="sass-logo" transform="translate(3.000000, 3.000000)">
            <path d="M161.237437,158.700057 C160.682186,158.305033 160.774515,157.028312 162.600643,153.051892 C163.317549,151.490639 164.953269,148.862152 167.79693,146.350224 C168.12631,147.383289 168.327261,148.373881 168.321511,149.296135 C168.284771,155.448538 163.893246,157.746188 161.237437,158.700057 L161.237437,158.700057 Z M137.861974,164.026327 C137.117593,164.415603 136.435191,164.660217 136.117951,164.471487 C135.885372,164.332574 136.424968,163.820034 136.424968,163.820034 C136.424968,163.820034 140.220669,159.73887 141.7155,157.880311 C142.585116,156.799665 143.593384,155.516876 144.692064,154.082082 C144.701009,154.225466 144.705801,154.367572 144.705801,154.508082 C144.694619,159.397814 139.969241,162.699151 137.861974,164.026327 L137.861974,164.026327 Z M107.518726,149.554481 C105.762883,153.833316 102.087944,164.77997 99.8512881,164.193342 C97.9312338,163.689743 96.7619495,155.368383 99.4679162,147.178911 C100.829845,143.056552 103.739318,138.130734 105.448518,136.218846 C108.20017,133.142325 111.229766,132.136085 111.96584,133.383427 C112.904143,134.972781 108.619643,146.872345 107.518726,149.554481 L107.518726,149.554481 Z M70.7916976,174.511534 C65.7503571,180.008971 58.7071762,182.086596 55.6868445,180.336614 C52.4256275,178.446441 53.7172714,170.35309 59.9039355,164.519388 C63.6747177,160.964177 68.5425825,157.689665 71.7718518,155.672714 C72.506648,155.230748 73.5864788,154.58153 74.8985692,153.795634 C75.1161327,153.67173 75.2388117,153.603072 75.2388117,153.603072 L75.2340196,153.594769 C75.4873645,153.443402 75.7467795,153.287884 76.0148204,153.127895 C78.2658524,161.431371 76.0831884,168.741701 70.7916976,174.511534 L70.7916976,174.511534 Z M188.106696,134.977891 C181.990316,135.010144 176.692756,136.47783 172.252031,138.665628 C170.627812,135.425605 168.984105,132.575177 168.708077,130.455718 C168.385725,127.981473 168.012257,126.505483 168.40138,123.557976 C168.790822,120.610468 170.496827,116.436696 170.471907,116.124062 C170.446988,115.811428 170.089174,114.309892 166.561514,114.284345 C163.033534,114.259117 160.015758,114.962623 159.66082,115.893818 C159.305562,116.825013 158.626354,118.920522 158.203687,121.105445 C157.585819,124.302996 151.160187,135.706625 147.511764,141.672533 C146.318519,139.344226 145.303861,137.291189 145.092368,135.667665 C144.770335,133.193419 144.396548,131.71743 144.78567,128.769603 C145.175112,125.822415 146.881117,121.648004 146.856198,121.33537 C146.831279,121.022736 146.473785,119.521519 142.945805,119.495972 C139.417825,119.470744 136.400049,120.17425 136.04511,121.105445 C135.689852,122.036641 135.310634,124.212303 134.587978,126.317073 C133.865322,128.422162 125.323795,147.444921 123.08682,152.37553 C121.946928,154.887777 120.954953,156.906005 120.25466,158.284596 C120.252744,158.281083 120.250188,158.276931 120.250188,158.276931 C120.250188,158.276931 120.207058,158.368582 120.13262,158.523462 C119.533282,159.696717 119.176427,160.345935 119.176427,160.345935 C119.176427,160.345935 119.180261,160.354876 119.18697,160.370205 C118.711589,161.231784 118.202023,162.032049 117.949637,162.032049 C117.773286,162.032049 117.420264,159.73855 118.026631,156.590497 C119.297509,149.991657 122.350746,139.700609 122.320396,139.346142 C122.304422,139.164437 122.887786,137.371344 120.326543,136.433762 C117.836862,135.523004 116.950314,137.042104 116.723166,137.046894 C116.503047,137.051684 116.339475,137.583705 116.339475,137.583705 C116.339475,137.583705 119.113171,126.010826 111.048943,126.010826 C106.007282,126.010826 99.0212879,131.523591 95.5798861,136.520622 C93.4080843,137.704734 88.7606583,140.240613 83.8298567,142.948615 C81.9359995,143.988386 80.0034856,145.051469 78.1709679,146.060583 C78.046372,145.922628 77.9220956,145.784354 77.7939855,145.647676 C68.0157656,135.219631 49.9394607,127.843837 50.7062045,113.824495 C50.9851076,108.72783 52.7575637,95.3078893 85.4400187,79.0292175 C112.212157,65.6942211 133.644563,69.3637561 137.348575,77.4963859 C142.639746,89.1149302 125.894061,110.709334 98.0909721,113.824495 C87.4977674,115.011482 81.9200256,110.907964 80.5325388,109.379283 C79.0722113,107.770449 78.8543283,107.697959 78.3089818,107.999735 C77.4208368,108.491838 77.9837546,109.912262 78.3089818,110.758832 C79.1393014,112.918528 82.5455608,116.748052 88.3533257,118.652915 C93.4623953,120.328811 105.899619,121.249468 120.939938,115.433968 C137.785938,108.920711 150.940067,90.802003 147.076317,75.6569879 C143.147075,60.2536269 117.596296,55.1898538 93.4141543,63.7775429 C79.0220535,68.888259 63.4421387,76.9097584 52.2400116,87.3831498 C38.9203937,99.8364487 36.7965133,110.675165 37.6715597,115.204044 C40.7813448,131.295902 62.9705913,141.775041 71.8561936,149.541388 C71.4175523,149.783128 71.0063859,150.010179 70.6322788,150.216472 C66.1774973,152.419279 49.2631288,161.26723 45.0323003,170.615907 C40.2334425,181.220227 45.7964883,188.828501 49.4794144,189.852943 C60.8907987,193.026863 72.6005741,187.318023 78.8936239,177.935497 C85.1853958,168.555206 84.4170547,156.341093 81.5293058,150.765737 C81.4935244,150.69644 81.4539093,150.62874 81.4171695,150.560082 C82.5672852,149.879569 83.7404032,149.187559 84.9029785,148.50513 C87.1703039,147.17444 89.3957778,145.932847 91.3273333,144.882218 C90.2468634,147.84218 89.4552004,151.390047 89.0433951,156.513856 C88.5597076,162.533413 91.0276642,170.31413 94.257253,173.375323 C95.6792433,174.722937 97.3900405,174.754552 98.474344,174.754552 C102.232347,174.754552 103.947297,171.629491 105.835085,167.933451 C108.15097,163.400421 110.205524,158.123329 110.205524,158.123329 C110.205524,158.123329 107.626709,172.378663 114.652958,172.378663 C117.212924,172.378663 119.788225,169.060402 120.935146,167.368539 C120.93834,167.387061 120.939938,167.39696 120.939938,167.39696 C120.939938,167.39696 121.006708,167.286788 121.137055,167.065805 C121.402859,166.659604 121.553333,166.400939 121.553333,166.400939 C121.553333,166.400939 121.558444,166.374114 121.566751,166.327491 C122.595785,164.541423 124.878126,160.469519 128.300998,153.754759 C132.723193,145.079251 136.964883,134.211156 136.964883,134.211156 C136.964883,134.211156 137.359437,136.868383 138.65172,141.262181 C139.412074,143.847557 141.027348,146.70533 142.30174,149.445905 C141.2759,150.868565 140.645254,151.685755 140.645254,151.685755 C140.645254,151.685755 140.651324,151.700764 140.662505,151.728228 C139.842728,152.815899 138.923594,153.989793 137.96197,155.134307 C134.471688,159.289558 130.314339,164.03463 129.757492,165.404279 C129.101926,167.017904 129.256872,168.20489 130.524235,169.159717 C131.450079,169.857155 133.098258,169.965411 134.818001,169.849491 C137.954622,169.638726 140.161566,168.861134 141.250342,168.387553 C142.947721,167.787513 144.924323,166.843863 146.779524,165.480921 C150.203354,162.964841 152.268451,159.365561 152.070056,154.597816 C151.960156,151.970287 151.121849,149.36607 150.061507,146.907472 C150.372357,146.461035 150.683847,146.010446 150.996295,145.55411 C156.393852,137.666733 160.580593,128.999528 160.580593,128.999528 C160.580593,128.999528 160.975146,131.656436 162.267749,136.050554 C162.921717,138.274756 164.212083,140.700782 165.372422,143.080503 C160.297217,147.202542 157.149734,151.992002 156.056804,155.134307 C154.036115,160.945336 155.618802,163.578613 158.587378,164.178014 C159.932055,164.449772 161.831024,163.833765 163.259723,163.229255 C165.037291,162.640073 167.173312,161.658741 169.168443,160.192971 C172.592274,157.676892 175.88416,154.153614 175.685765,149.386189 C175.595034,147.215635 175.006239,145.061368 174.207228,142.991726 C178.509299,141.200548 184.079374,140.204527 191.17399,141.032576 C206.393855,142.809064 209.379683,152.308149 208.809098,156.283931 C208.238193,160.260032 205.045664,162.445275 203.978293,163.105351 C202.911241,163.765107 202.585375,163.994074 202.675148,164.484899 C202.804855,165.198305 203.298446,165.170842 204.208316,165.017558 C205.461303,164.806155 212.200661,161.783603 212.489149,154.444852 C212.855589,145.127791 203.925259,134.893585 188.106696,134.977891 L188.106696,134.977891 Z" id="Sass-logo-Copy" fill="#BF5F8B"></path>
            <circle id="Oval-2-Copy" stroke="#979797" stroke-width="5" cx="125" cy="125" r="125"></circle>
        </g>
    </g>
</svg>