<?xml version="1.0" encoding="UTF-8" standalone="no"?>
<svg width="669px" height="554px" viewBox="0 0 669 554" version="1.1" xmlns="http://www.w3.org/2000/svg" xmlns:xlink="http://www.w3.org/1999/xlink">
    <!-- Generator: Sketch 3.6.1 (26313) - http://www.bohemiancoding.com/sketch -->
    <title>baseplate-logo</title>
    <desc>Created with Sketch.</desc>
    <defs></defs>
    <g id="Page-1" stroke="none" stroke-width="1" fill="none" fill-rule="evenodd">
        <g id="baseplate-logo" transform="translate(0.000000, 20.000000)">
            <g id="Group">
                <path d="M368.353427,24.0160676 L333.878906,0 L299.404385,24.0160676 L221.47156,24.0160676 L197.388993,95.0832932 L152,126.702735 L169.337053,177.864068 L152,229.0254 L197.388993,260.644842 L221.47156,331.712068 L299.404385,331.712068 L333.878906,355.728135 L368.353427,331.712068 L446.286252,331.712068 L470.368819,260.644842 L515.757813,229.0254 L498.42076,177.864068 L515.757813,126.702735 L470.368819,95.0832932 L446.286252,24.0160676 L368.353427,24.0160676 L368.353427,24.0160676 Z" id="Shape" stroke="#40133E" stroke-width="32"></path>
                <path d="M336.590322,80.157059 C360.535823,80.157059 379.216761,84.6238632 392.633695,93.5576056 C406.05063,102.491348 412.758997,115.847093 412.758997,133.62524 C412.758997,142.64832 410.266652,150.710901 405.281888,157.813227 C400.297124,164.915552 393.05302,170.253383 383.549358,173.82688 C395.755042,176.328328 404.909167,181.688493 411.012009,189.907536 C417.11485,198.126579 420.166226,207.640872 420.166226,218.4507 C420.166226,237.122222 413.737374,251.259657 400.879479,260.86343 C388.021583,270.467203 369.806504,275.269018 346.233695,275.269018 L246.166226,275.269018 L246.166226,251.818061 L267.828876,247.797897 L267.828876,107.762185 L246.166226,103.742021 L246.166226,80.157059 L267.828876,80.157059 L336.590322,80.157059 L336.590322,80.157059 Z M308.638515,188.969497 L308.638515,245.251793 L346.233695,245.251793 C357.041782,245.251793 365.287482,242.996057 370.971045,238.484517 C376.654607,233.972977 379.496346,227.295105 379.496346,218.4507 C379.496346,208.891596 377.07388,201.588371 372.228876,196.540806 C367.383872,191.493242 359.743788,188.969497 349.308394,188.969497 L308.638515,188.969497 L308.638515,188.969497 Z M308.638515,161.900393 L337.987912,161.900393 C348.889172,161.900393 357.27463,159.756327 363.144539,155.468131 C369.014448,151.179935 371.949358,144.926409 371.949358,136.707366 C371.949358,127.684286 368.991155,121.028748 363.074659,116.740551 C357.158164,112.452355 348.33014,110.308289 336.590322,110.308289 L308.638515,110.308289 L308.638515,161.900393 L308.638515,161.900393 Z M19.3515625,444.318359 L10.2207031,444.318359 L10.2207031,525.666016 L19.3515625,525.666016 L19.3515625,533.234375 L0.6015625,533.234375 L0.6015625,436.75 L19.3515625,436.75 L19.3515625,444.318359 L19.3515625,444.318359 Z M80.3867188,446.90625 C87.8086309,446.90625 93.6109817,448.509424 97.7939453,451.71582 C101.976909,454.922217 104.068359,459.731739 104.068359,466.144531 C104.068359,469.302099 103.067393,472.125964 101.06543,474.616211 C99.0634666,477.106458 96.4186362,478.95377 93.1308594,480.158203 C97.3952036,481.069666 100.764311,483.169254 103.238281,486.457031 C105.712252,489.744808 106.949219,493.56964 106.949219,497.931641 C106.949219,504.44209 104.833354,509.414371 100.601562,512.848633 C96.3697705,516.282895 90.6406611,518 83.4140625,518 L49.234375,518 L49.234375,511.847656 L57.1933594,510.480469 L57.1933594,454.474609 L49.234375,453.107422 L49.234375,446.90625 L57.1933594,446.90625 L80.3867188,446.90625 L80.3867188,446.90625 Z M66.8125,484.650391 L66.8125,510.480469 L83.4140625,510.480469 C87.8086157,510.480469 91.2184124,509.398123 93.6435547,507.233398 C96.068697,505.068674 97.28125,502.000671 97.28125,498.029297 C97.28125,493.862609 96.2640076,490.591158 94.2294922,488.214844 C92.1949768,485.83853 89.078146,484.650391 84.8789062,484.650391 L66.8125,484.650391 L66.8125,484.650391 Z M66.8125,477.130859 L82.8769531,477.130859 C86.3274912,477.033203 89.1188044,476.007822 91.2509766,474.054688 C93.3831487,472.101553 94.4492188,469.399757 94.4492188,465.949219 C94.4492188,462.108054 93.2448037,459.235361 90.8359375,457.331055 C88.4270713,455.426748 84.9440332,454.474609 80.3867188,454.474609 L66.8125,454.474609 L66.8125,477.130859 L66.8125,477.130859 Z M114.126953,511.847656 L119.400391,511.115234 L144.253906,446.90625 L152.505859,446.90625 L176.919922,511.115234 L182.144531,511.847656 L182.144531,518 L161.734375,518 L161.734375,511.847656 L167.105469,510.919922 L162.417969,497.833984 L133.951172,497.833984 L129.117188,510.919922 L134.488281,511.847656 L134.488281,518 L114.126953,518 L114.126953,511.847656 L114.126953,511.847656 Z M136.929688,489.777344 L159.488281,489.777344 L148.453125,459.259766 L148.160156,459.259766 L136.929688,489.777344 L136.929688,489.777344 Z M239.615234,467.902344 L232.339844,467.902344 L230.533203,457.746094 C229.068352,456.509108 227.115247,455.483728 224.673828,454.669922 C222.23241,453.856116 219.400407,453.449219 216.177734,453.449219 C211.067032,453.449219 207.144545,454.531565 204.410156,456.696289 C201.675768,458.861013 200.308594,461.684878 200.308594,465.167969 C200.308594,468.260432 201.700181,470.840159 204.483398,472.907227 C207.266615,474.974294 211.766896,476.789055 217.984375,478.351562 C225.471392,480.207041 231.159811,482.941388 235.049805,486.554688 C238.939798,490.167987 240.884766,494.643854 240.884766,499.982422 C240.884766,505.711617 238.549177,510.317691 233.87793,513.800781 C229.206682,517.283872 223.09509,519.025391 215.542969,519.025391 C210.074191,519.025391 205.215842,518.130217 200.967773,516.339844 C196.719705,514.54947 193.261081,512.205744 190.591797,509.308594 L190.591797,496.076172 L197.818359,496.076172 L199.673828,506.28125 C201.529306,507.811206 203.742826,509.064448 206.314453,510.041016 C208.886081,511.017583 211.962222,511.505859 215.542969,511.505859 C220.393253,511.505859 224.226223,510.480479 227.041992,508.429688 C229.857761,506.378896 231.265625,503.595721 231.265625,500.080078 C231.265625,496.824854 230.044934,494.098644 227.603516,491.901367 C225.162097,489.704091 220.848989,487.856778 214.664063,486.359375 C207.144494,484.569001 201.268901,481.932309 197.037109,478.449219 C192.805317,474.966128 190.689453,470.587917 190.689453,465.314453 C190.689453,459.748019 193.049456,455.117531 197.769531,451.422852 C202.489607,447.728172 208.625613,445.880859 216.177734,445.880859 C221.158228,445.880859 225.69106,446.735343 229.776367,448.444336 C233.861674,450.153329 237.141264,452.228503 239.615234,454.669922 L239.615234,467.902344 L239.615234,467.902344 Z M249.039062,518 L249.039062,511.847656 L256.998047,510.480469 L256.998047,454.474609 L249.039062,453.107422 L249.039062,446.90625 L303.628906,446.90625 L303.628906,463.996094 L295.376953,463.996094 L294.595703,454.474609 L266.617188,454.474609 L266.617188,477.472656 L293.814453,477.472656 L293.814453,485.041016 L266.617188,485.041016 L266.617188,510.480469 L295.181641,510.480469 L295.962891,500.958984 L304.166016,500.958984 L304.166016,518 L249.039062,518 L249.039062,518 Z M345.474609,446.90625 C353.059283,446.90625 358.959289,448.859355 363.174805,452.765625 C367.390321,456.671895 369.498047,461.815072 369.498047,468.195312 C369.498047,474.640657 367.390321,479.800111 363.174805,483.673828 C358.959289,487.547545 353.059283,489.484375 345.474609,489.484375 L330.386719,489.484375 L330.386719,510.480469 L338.345703,511.847656 L338.345703,518 L312.808594,518 L312.808594,511.847656 L320.767578,510.480469 L320.767578,454.474609 L312.808594,453.107422 L312.808594,446.90625 L320.767578,446.90625 L345.474609,446.90625 L345.474609,446.90625 Z M330.386719,481.964844 L345.474609,481.964844 C350.292342,481.964844 353.897449,480.670911 356.290039,478.083008 C358.682629,475.495104 359.878906,472.231791 359.878906,468.292969 C359.878906,464.354147 358.682629,461.066419 356.290039,458.429688 C353.897449,455.792956 350.292342,454.474609 345.474609,454.474609 L330.386719,454.474609 L330.386719,481.964844 L330.386719,481.964844 Z M376.333984,518 L376.333984,511.847656 L384.292969,510.480469 L384.292969,454.474609 L376.333984,453.107422 L376.333984,446.90625 L384.292969,446.90625 L393.912109,446.90625 L401.871094,446.90625 L401.871094,453.107422 L393.912109,454.474609 L393.912109,510.480469 L418.619141,510.480469 L419.351562,502.326172 L427.554688,502.326172 L427.554688,518 L376.333984,518 L376.333984,518 Z M435.025391,511.847656 L440.298828,511.115234 L465.152344,446.90625 L473.404297,446.90625 L497.818359,511.115234 L503.042969,511.847656 L503.042969,518 L482.632812,518 L482.632812,511.847656 L488.003906,510.919922 L483.316406,497.833984 L454.849609,497.833984 L450.015625,510.919922 L455.386719,511.847656 L455.386719,518 L435.025391,518 L435.025391,511.847656 L435.025391,511.847656 Z M457.828125,489.777344 L480.386719,489.777344 L469.351562,459.259766 L469.058594,459.259766 L457.828125,489.777344 L457.828125,489.777344 Z M557.681641,446.90625 L557.681641,462.628906 L549.478516,462.628906 L548.746094,454.474609 L532.974609,454.474609 L532.974609,510.480469 L540.933594,511.847656 L540.933594,518 L515.396484,518 L515.396484,511.847656 L523.355469,510.480469 L523.355469,454.474609 L507.535156,454.474609 L506.851562,462.628906 L498.599609,462.628906 L498.599609,446.90625 L557.681641,446.90625 L557.681641,446.90625 Z M562.955078,518 L562.955078,511.847656 L570.914062,510.480469 L570.914062,454.474609 L562.955078,453.107422 L562.955078,446.90625 L617.544922,446.90625 L617.544922,463.996094 L609.292969,463.996094 L608.511719,454.474609 L580.533203,454.474609 L580.533203,477.472656 L607.730469,477.472656 L607.730469,485.041016 L580.533203,485.041016 L580.533203,510.480469 L609.097656,510.480469 L609.878906,500.958984 L618.082031,500.958984 L618.082031,518 L562.955078,518 L562.955078,518 Z M649.234375,436.75 L668.033203,436.75 L668.033203,533.234375 L649.234375,533.234375 L649.234375,525.666016 L658.414062,525.666016 L658.414062,444.318359 L649.234375,444.318359 L649.234375,436.75 L649.234375,436.75 Z" id="Shape" fill="#40133E"></path>
            </g>
        </g>
    </g>
</svg>